<?xml version="1.0" encoding="utf-8"?>
<!-- Generator: Adobe Illustrator 22.0.1, SVG Export Plug-In . SVG Version: 6.00 Build 0)  -->
<svg version="1.1" id="Layer_1" xmlns="http://www.w3.org/2000/svg" xmlns:xlink="http://www.w3.org/1999/xlink" x="0px" y="0px"
	 viewBox="0 0 1366 768" style="enable-background:new 0 0 1366 768;" xml:space="preserve">
<style type="text/css">
	.st0{filter:url(#Adobe_OpacityMaskFilter);}
	.st1{fill:#FFFFFF;}
	.st2{mask:url(#SVGID_1_);}
</style>
<g>
	<defs>
		<filter id="Adobe_OpacityMaskFilter" filterUnits="userSpaceOnUse" x="49" y="209.2" width="1066.2" height="330.2">
			
				<feColorMatrix  type="matrix" values="-1 0 0 0 1  0 -1 0 0 1  0 0 -1 0 1  0 0 0 1 0" color-interpolation-filters="sRGB" result="source"/>
			<feFlood  style="flood-color:white;flood-opacity:1" result="back"/>
			<feBlend  in="source" in2="back" mode="normal"/>
		</filter>
	</defs>
	<mask maskUnits="userSpaceOnUse" x="49" y="209.2" width="1066.2" height="330.2" id="SVGID_1_">
		<g class="st0">
			<path class="st1" d="M264.6,479.5c9.1,0,18.2,0,27.3,0c0,0.6,0,1.2-0.1,1.8c-9.1-0.5-18.2-1-27.2-1.5
				C264.6,479.7,264.6,479.6,264.6,479.5z"/>
		</g>
	</mask>
	<g class="st2">
		<path d="M570.6,539.1c0-7.8,0.1-15.5-0.1-23.3c0-1.8-1.6-3.7-1.3-5.2c0.5-2-0.3-3.6-0.3-5.1c-0.1-3.5,3.1-4,6.1-4c2,0,4-1,5.9-2.9
			c-4-0.2-8-0.5-11.3-0.7c0.5-3,1-5.6,1.5-8.6c1.5-0.1,3.2-0.3,5.5-0.5c-3.2-0.9-5.7-1.6-9.5-2.7c2.3-1.2,3.2-1.7,4.4-2.3
			c-1.1-0.9-2-1.7-1.9-1.6c0-4.7,0-8.4,0-12.5c4-2.6,4.9-2,10.1,6.6c-0.9,4.2-1.7,7.5-2.5,11.3c3.5,0,5.9,0,8.6,0
			c0.2-1.5,0.5-3.1,0.8-5.4c8.5-0.4,17.2-0.9,25.8-1.3c-0.2-0.4-0.3-0.8-0.5-1.2c1.8-1,3.6-2.8,5.5-3c8.7-1,17.4-1.9,26.1-2.1
			c4.9-0.1,9.8,1.7,14.7,1.9c4,0.2,8.1-0.8,13-1.3c-2.3-2.1-3.9-3.6-6.6-6.1c4.4-0.2,8.2-0.8,11.9-0.3c4.1,0.5,8.1,2.1,12.9,3.4
			c-0.5,3.5-1.2,6.7-1.1,9.8c0,1,2.4,2.9,3.6,2.8c4.8-0.3,10.1-0.1,12.8-7c-1.6-1.1-3.5-2.4-5.7-4c2-1.6,4.1-3.3,7.4-6
			c-3.8-0.6-6.1-1-8.4-1.4c-1.4-5.8-2.7-6.6-8.2-5c-4.4,1.3-8.3,1.6-11.2-4.1c-1.5-2.8-5.9-3.5-8.3-6c-5.8-5.8-11.1-12.1-17.3-19
			c-5.4,0.3-7.6-1.7-7.2-8.2c0.1-1.2,0.9-3,1.8-3.4c0.9-0.4,3,0.1,3.5,0.9c2,3.6,3.9,3.8,6.5,0.7c0.5-0.5,2.3,0.3,3.5,0.5
			c0,0.5-0.1,1.1-0.1,1.6c2.3-0.5,4.6-1.1,7.1-1.7c0.3-1.3,0.5-2.8,0.9-4.2c1.2-3.9,3.5-4.1,6.4-2.3c1,0.6,2,1.9,2.9,1.7
			c11.3-1.6,20.8,6.7,32,7c6.1,0.2,12,5.5,18.1,8.6c1.2-3.7,5.6-1.2,8.8-1.9c5.4-1.2,11.1,0.8,16.4-2.2c1.2-0.7,2.8-0.6,4.2-0.5
			c2.9,0.2,5.8,0.9,8.7,1c3.5,0.2,4.6,1.9,3.5,5.4c-5,0.2-9.9,0.3-14.9,0.5c0,0.6,0,1.1,0.1,1.7c5.4,3,10.3,1.5,15.2-1.6
			c2.8,1.8,5.5,3.7,9,6c0-54.6,0-108.4,0-162.4c4.6-0.7,8.8-1.3,13.4-2c0.1-1.6,0.2-3.2,0.4-5c-3.1-0.4-5.8-0.8-8.6-1.2
			c0-0.7-0.1-1.4-0.1-2.1c3.8-0.6,7.6-1.1,11.4-2c1.1-0.3,1.8-2,2.8-3c-4-0.2-1.3-4.1-3-6.2c-0.2,2.3-0.4,4.3-0.6,6.2
			c-0.2,0-0.3,0-0.5,0c-0.2-1.7-0.4-3.5-0.4-4.1c-3.5-1-6.5-1.8-9.6-2.7c0-0.8,0-1.5,0.1-2.3c4.5-0.8,9-1.7,13.5-2.3
			c2.7-0.4,5.6-0.1,5.8-4.5c0-0.6,2-1.5,3.1-1.7c4.7-0.7,9.4-1.5,14.2,0.2c0.8,0.3,1.8-0.4,2.7-0.6c-1,0.9-2.2,1.6-2.9,2.8
			c-0.5,0.9-0.4,2.3-0.7,4.1c7.4-0.6,14.3-1.2,21.2-1.7c0.1,0.3,0.2,0.6,0.2,0.8c-0.9,0.3-1.8,0.6-2.8,0.9c0,0.3,0,0.7,0.1,1
			c6.9-0.5,13.8-1.1,20.7-1.6c0-0.4,0-0.8,0-1.1c-3.3,0-6.6,0-11,0c1.1-1.5,1.7-3,2.3-3c4.3-0.1,8.9-1.7,12.9,1.7
			c0.1-0.3,0.3-1.3,0.6-2.3c2.3,0.3,4.5,0.5,6.9,0.8c-1,4.1-3.5,3.9-6.3,3.9c-2.4,0-4.9,1.1-7.2,2.6c8.2-0.5,16.3-0.9,24.5-1.4
			c0.1,0.7,0.2,1.4,0.4,2.1c-3.2,0.8-6.4,1.6-9.6,2.4c0.2,0.2,0.3,0.5,0.5,0.7c-1.3,1-2.7,2.9-4,2.8c-12.6-0.5-25.2-1.3-37.8-2.2
			c-1-0.1-2.8-1.1-2.8-1.7c0-6.3-4.7-2.2-6.7-3.7c-0.6,2-1.4,3.9-1.8,5.9c-0.3,1.8-0.1,3.8-0.1,6.9c7.5,0,14.8-0.3,22.1,0.1
			c7.1,0.3,14.1,1.3,20.5,1.9c0.5-0.5,0.1-0.1-1.2,1.2c6.7-0.3,12.3-0.6,18-0.9c-0.3,0.3-0.5,0.7-0.8,0.9c-1.4,0.9-2.9,1.8-4.4,2.7
			c1.6,0.8,3.3,1.7,4.9,2.5c0,0.3,0,0.7,0,1c-19.9-1-39.7-2-59.6-3c0.2,1.5,0.5,2.6,0.5,3.6c-0.1,26.1-0.4,52.2-0.4,78.2
			c0,14.8,0.4,29.6,0.4,44.4c0,16.6-0.5,33.3-0.5,49.9c0,15.9,0.4,31.9,0.4,47.8c0.1,12.9-0.1,25.8-0.2,38.7c0,1-0.5,2.1-0.7,3.1
			c-44.4,0-88.8,0-133.3,0c0-13.8,0-27.6,0-41.1c-1.7-1-3.1-1.8-5.1-3c2.5-1.2,3.8-1.8,5.1-2.4c-0.1-0.3-0.2-0.6-0.3-1
			c-2.7,0-5.4,0-8.4,0c1.2,0.7,2.3,1.4,3.9,2.4c-2.4,0.5-4,0.9-6,1.3c1.2,3.5,3.8,7.5,2.9,9.4c-2,4.1-1,7.9-1.1,11.8
			c0,1,1.2,2.1,1.8,3.1c-3.5,2.8-3.4,11.1-1,12.4c-0.1,2.9-0.2,4.9-0.2,7C642.1,539.1,606.3,539.1,570.6,539.1z M732.8,473.2
			c-6.9-5.3-13.2-10-19.5-14.8c-1.9,3.1-3.6,4.2-4.5,5.8c-0.9,1.8-1.2,4.1-1.5,6.3c-0.3,1.6-0.3,3.2-0.5,4.8
			c5.7-5.3,8.3-5.3,13.8-1.9C724,475.5,728.2,477.3,732.8,473.2z M639.3,493c-10.7-0.6-20.9-1.2-31.3-1.8c0.1,1.6,0.1,2.9,0.3,3
			c7.3,0.6,14.7,1.3,22.1,1.5C633.4,495.8,637,497.3,639.3,493z M769.6,517.2c0.2,0.1,0.4,0.1,0.5,0.2c0-14.7,0-29.3,0-44
			c-0.2,0-0.4,0-0.5,0C769.6,488,769.6,502.6,769.6,517.2z M725.5,449.2c0.3,0.4,0.5,0.9,0.8,1.3c1.2-0.3,2.5-0.8,3.7-0.8
			c1.4,0,3.7,1.2,4.1,0.7c1.2-1.8,1.7-4.1,2.5-6.2c-0.5-0.4-1-0.8-1.5-1.2C731.9,445.1,728.7,447.2,725.5,449.2z M674.1,449.8
			c0.2-0.6,0.5-1.1,0.7-1.7c-0.9-0.7-2-1.3-2.5-2.2c-0.2-0.4,1.2-1.7,1.1-2.5c-0.8-4.3-5.4-5.4-8.7-3.3c1.7,2.4,3.3,5,5.3,7.3
			C671,448.6,672.7,449.1,674.1,449.8z"/>
		<path d="M951.1,402.6c1.1-4.8-4-5.7-4.9-9.3c-0.4-1.5-2-2.5-3-3.8c0.3-0.3,0.6-0.6,1-0.9c-1.9-0.8-3.7-1.5-5.7-2.3
			c-0.2,1-0.5,2-0.7,3c-0.1,0-0.3,0-0.4,0c0-1.7,0-3.4,0-5.9c2.4,0.5,4.5,0.9,7.1,1.3c-1-0.7-2.1-2.1-3.2-2.1
			c-3.3,0-3.9-1.6-4.2-4.8c-0.5-4.6-1.8-9.1-2.7-13.3c2.2-0.7,4.2-1.3,6.2-1.9c1.9,0.6,3.9,1.9,5.8,1.7c7.7-0.7,11.6,5.6,16.1,10.4
			c0.9,0.9,0.6,3.2,0.7,4.8c0.3,3.5,2.7,6.4,6.5,7.5c-0.1,0.5-0.2,0.9-0.3,1.4c-3-0.9-6.6-0.9-8.8-2.9c-4.3-3.8-4.9-1.6-5.4,2.5
			c0.5-0.1,0.9-0.2,1.4-0.3c1.1,3.7,2.3,7.5,3.6,12c1.7-0.4,4.2-0.9,5.3-1.2c1.7-2.3,2.7-5,3.7-4.9c3.3,0.2,4.5,3.1,4.1,6.3
			c-0.6,4.6-1.7,9.1-2.6,13.5c-4,1-8.4,1.7-12.5,3.2c-1,0.4-1.9,4-1.4,5.6c1.2,3.8,3.1,7.5,5.2,10.9c0.8,1.3,2.6,2.1,4.2,2.6
			c2,0.6,4.2,0.6,6.2,1.2c0.5,0.1,1.2,2,1.1,2.1c-5.2,5.6,2.2,6.9,2.6,10.4c2.5-1.9,4.7-3.7,7.4-5.7c-1-1.9-2.1-4-3.3-6.1
			c0.3-0.6,0.6-1.2,0.9-1.8c4.9,2.3,10.9,7.8,14.4,6.2c6.3-2.7,10.4,2.6,16.7,1.3c0.2-2.1,0.4-4.7,0.6-7.3c3.2,2.6,4.9,0.1,6-4.4
			c2.1,3.2,3.8,5.6,5.6,8.4c-1.3,0.5-2.7,1-4.8,1.7c-0.3-0.3-1.3-1.2-2.6-2.4c-1.3,0.9-2.5,1.8-3.6,2.7c1.7,2.3,3.3,4.5,5.7,7.8
			c5.6,1.7,12.8,3.7,19.8,6.2c1.5,0.5,2.6,2.7,3.7,4.3c1.5,2.2,2.9,3.7,4.3,0.1c1.2-3.2,2.6-2.9,4.5-0.7c1.2,1.3,2.7,2.2,4.7,3.7
			c0.1-0.4-0.1,0.5-0.3,2c1.1-0.3,1.9-0.5,3-0.8c0.1,1.7,0.5,3.4,0.1,4.7c-0.2,0.7-1.9,1.6-2.7,1.3c-1-0.4-2-1.6-2.4-2.7
			c-0.6-1.4-0.7-3.1-2-4.4c0.3,2,0.7,3.9,0.9,5.6c-8.3,0-16.3,0-24.7,0c2.1,2.2,3.9,4,5.9,6c2.4-1,5.6-2.8,8.9-3.6
			c1.5-0.4,3.4,1.6,5.2,1.7c1.9,0.1,3.9-0.6,5.7-1c0.9,0.7,2,1.6,3.1,2.6l-0.1-0.2c-0.7,1.1-1.6,2.2-2.1,3.4
			c-4.2,9.9-8.2,19.9-12.6,29.8c-0.8,1.8-2.6,3.1-4,4.7c-1-1.6-2-3.3-2.6-4.3c-3.3,1.9-3.7,8-8.8,8.3c3.4-3.1,4.6-17.2,2.6-33.7
			c-1.5,0-3,0-4.9,0c0,9.2,0,18.2,0,27.2c0,4.8-2.5,6.8-7.7,5.9c0-14.9,0-29.9,0-45c1.9,0.1,3.4,0.2,5.1,0.4
			c-3.4-4.5-16.1-6.8-27.6-5.4c0,19.7,0,39.3,0,59.4c-0.7-1.2-1.1-2.1-1.9-3.4c-1.7,1.9-3.9,3.3-4.4,5.2c-1.1,3.9-1.3,8.2-1.9,12.3
			c-28.5,0-56.9,0-85.4,0c-0.7-2.1-1.8-4.2-1.9-6.3c-0.3-6-0.1-12-0.1-18c0-14.4,0.2-28.7,0-43.1c-0.5-27.8,1.8-55.7-2.2-83.5
			c0-0.1-0.4-0.2-0.7-0.2c-0.2,1.4-0.4,2.8-0.6,4.8c-0.8-3.6-1.5-6.4-2.2-9.3c-0.6,0.1-1.2,0.2-1.8,0.4c0.3,4.3-0.8,9.7,1.2,12.8
			c2.5,3.9,4.1,7.7,4.1,11.9c0,17.3-0.7,34.7-0.7,52c0,15.3,0.6,30.5,0.8,45.8c0.1,10,0,20.1,0,30.1c-1.1-1.1-3.3-2.1-3.3-3.2
			c0-40.6,0.2-81.1,0.2-121.7c0-3.6-1-7.3-2-10.9c-2.8-9.7-3.6-19.4-1-29.2c0.1-0.5,0-1.1,0-1.7c1.1-0.4,2.2-0.8,3.3-1.2
			c1,1.8,2,3.6,3.2,5.6c1.6-1,3.4-2.2,5.3-3.3c1.7,0.7,3.3,1.4,5,2.2c-0.2,1.5-0.3,3-0.5,4.6c-0.5,0-1.1,0-1.6,0.1
			c1.2,1,2.4,2,4.1,3.4c0.6-3.8-0.7-10.5,7.2-7.5c0.6,8.4,1.2,17.5,1.8,26.7c-1.3-10.3-8.3-8.5-14.4-7.8c-0.8-2.6-1.5-4.7-2.4-7.7
			c0,0,1.1-1.1,2.7-2.7c-2-0.4-3.7-0.7-6.5-1.2c7,29.1,3.5,57.6,4.4,85.8c0.1,1.8,0.7,3.5,1.1,5.3c0.6-0.1,1.2-0.1,1.8-0.2
			c0-20.7,0-41.4,0-62.1c0.6-0.1,1.2-0.3,1.8-0.4c0.5,1.2,1.4,2.3,1.4,3.5c0,17.6,0,35.2-0.1,52.7c0,1.7,0.2,3.4,0.3,5.6
			c10-0.5,19.5-0.6,29-1.7c1.7-0.2,3-4.2,3.6-7.1c0.3-0.1,0.6-0.4,0.9-0.4c12.2-0.9,12-0.9,12.2-14c0.1-8.8,0.7-17.6,1.1-26.4
			c0.3-6.1-2.1-11.5-3.9-17.1c-0.2-0.6,0.1-1.4,0.2-2.1c2.2,1.6,4.3,3.2,6.5,4.9c0.7-0.7,1.4-1.4,2.1-2.1c-1.3-2.5-2.6-4.9-4.2-8
			C953.4,399.8,952.3,401.2,951.1,402.6z M959.6,446.2c-1.2,3.4-2.3,6.3-2.8,7.8c8.1,9,17.8,6.2,26.8,6.9c0.2,2.1,0.4,3.7,0.7,6.6
			c3.9-2.8,7.2-5.1,10.4-7.4c-7-1.4-7.8-2.2-9.4-9.6C975.8,456.1,966.8,455.7,959.6,446.2z"/>
		<path d="M491.3,476.5c2.6,0,5.2,0,8.1,0c0.2-1.6,0.5-3.2,0.7-4.9c7.3,0,14.7,0,22,0c-6.2,6.7-13.6,2.2-20.9,3.5
			c0,4.9,0,10.4,0,16.6c2-0.5,3.8-1,5.8-1.6c0,4,0,9,0,14c2.9-6.1,6.3,0.6,9.5-0.3c-0.1-2.5-0.3-4.6-0.4-6.7c0.3,0,0.7-0.1,1-0.1
			c0.1,1.9,0.2,3.8,0.4,5.9c1.5,0.3,3,0.7,5.2,1.2c0-8.9,0-17.3,0-25.9c-1.7,0-3.2,0-4.6,0c-0.7,2.1-1.4,4.3-2.1,6.5
			c-0.5-0.2-1.1-0.3-1.6-0.5c0.4-2,0.8-4.1,1.2-6.2c-0.8,0.1-1.9,0.3-3.1,0.4c-0.2,1.9-0.4,3.9-0.5,5.9c-0.5,0.1-0.9,0.3-1.4,0.4
			c-0.4-1.3-1.1-2.6-1.2-3.9c-0.1-1.1,0.5-2.2,1.1-4.1c6.4,0,13.9,0,22.1,0c-2-1.4-3.5-2.5-5.6-3.9c4-0.9,7.3-1.7,10.5-2.4
			c-0.1-0.4-0.3-0.8-0.4-1.2c-12.2,0-24.4,0-36.9,0c0-4.9,0-9.9,0-15.3c2.8,0,5.6,0,8.6,0c0.3-1.9,0.5-3.5,0.8-5.4
			c0.6-0.1,1.2-0.4,1.9-0.4c7.3,0,14.6,0.2,21.8-0.1c4.9-0.2,9.8-1,14.3-1.5c1.2,2.7,2.1,4.7,3,6.6c0.4-0.2,0.8-0.4,1.3-0.7
			c-0.6-1-1.3-1.9-1.8-3c-0.1-0.2,1-1.3,1.2-1.2c0.8,0.5,1.4,1.4,2.1,1.8c2,1.3,4.1,2.4,7,4.1c-0.9,24.8,1,50.8-0.9,77.6
			c-0.3,0.1-1.3,0.4-1.2,0.4c0.7,2.3,1.3,4.6,2,6.8c-2.8,0-5.6,0-8.3,0c0.5-1.1,1.6-2.2,1.5-3.1c-0.3-3.8-1-7.6-1.5-11.6
			c-1-0.1-2.8-0.3-4.9-0.5c-0.2-2.6-0.3-5-0.5-7.4c-0.3,0-0.5,0.1-0.8,0.1c-0.2,2.5-0.5,5-0.7,7.6c-0.5,0-0.9,0-1.4,0
			c-1.8-2.5-3.7-4.9-5.9-7.9c0,2.8,0,4.5,0,6c0.9-0.2,1.6-0.3,2-0.4c-1.5,3.9-3,7.6-5.1,13.1c-1.3-3.7-2.3-6.3-3.4-9.5
			c-3.5,0.8-2.1,4-1.7,6.2c0.5,2.6,1.8,5,2.7,7.5c-4.5,0-9,0-13.5,0c-0.3-7.9-0.7-15.8-1-23.7c-0.5,0-1.1,0-1.6,0
			c-1.9,2.4-1.6,5.1,0,8c1.1,1.9,2.5,3.7-0.3,5.5c-0.7,0.5-1.3,2.8-1.1,2.9c3.6,2.6-0.4,4.9-0.2,7.3c-5.9,0-11.8,0-17.7,0
			c0.2-8.5,0.4-16.9,0.6-25.4c0.6,0.6,1.1,1.2,1.7,1.9c-0.4,0.4-0.7,0.9-1.1,1.3c1.8,1.1,3.6,2.2,5.1,3.1c-0.2-4.5-0.4-8.4-0.6-11.9
			c-2.1,2.4-3.7,4.1-5.2,5.8c-0.3-6-0.7-11.9-1-17.9c-0.5,0-1.1,0.1-1.6,0.1c0,14.4,0,28.7,0,43.1c-19.1,0-38.2,0-57.3,0
			c0-12.3,0-24.6,0-37.5c-6.1,0-12.3,0-18.5,0c0-0.3,0-0.6,0-1c2.6-0.3,5.3-0.6,8.1-1c0-6.2,0.1-12.4-0.1-18.6
			c0-1.1-1.3-2.2-2.1-3.3c0.5-0.4,1.1-1,1.6-1.1c5-0.7,5.5-1.8,2.8-8.3c4.1-0.4,8.3-2.1,11-0.6c2.6,1.5,3.5,6.4,5.1,9.8
			c-0.4,0.3-0.9,0.6-1.3,0.9c3.6,0.7,7.3,1.4,10.5,2.1c-2.7,3.1-4.9,5.6-7.5,8.6c0.3,1.2,0.7,3.2,1.3,5.7c1.4,0.1,3.4-0.1,5.1,0.4
			c1.6,0.5,3.1,1.7,4.9,2.7c1.2-2.6,2.4-5.4,3-6.9c4.4,0.3,8.7,0.7,13,1c-0.1,0.3-0.2,0.6-0.3,0.9c1.6-0.7,3.2-1.4,4.8-2
			c-1-3.8-2.1-7.7-3.5-13.1c-0.5,3.1-0.8,4.8-1,6.1c-9.3-9.7-0.5-15.2,5.8-22.5c-1.7-1.2-3.2-2.3-4.8-3.4c2.7-1.6,8.5,1.1,9,4.8
			c0.8,6.3,5.4,7.4,9.4,9.4c1.5,0.7,2.8,1.8,4.1,2.7c-2.1,0.6-4.2,1.2-6.3,1.8c-0.6,2.1-1.3,4.2-1.9,6.2c3.3,0.8,6.5,1.7,10.4,2.6
			c-0.2-3.7-0.3-5.6-0.3-7.1C496.5,477.7,493.9,477.1,491.3,476.5z M532.1,476.7c-3.4,3.9-5.6,6.6-8.2,9.5c0,5.4,0,11.4,0,17.4
			c4.2-0.3,8.2-0.6,12-0.9c0-7.2,0-15.5,0-23.7c-0.2,0-0.4,0-0.6,0c-0.4,3.6-0.9,7.2-1.4,11.8c-0.7-2.4-1.5-4.2-1.7-6
			C531.9,482.6,532.1,480.3,532.1,476.7z M543.7,485.4c-1.9,1.2-3.7,12.2-2.1,17c0.5,1.4,2.4,2.1,2.9,2.6
			C544.2,498.4,544,492,543.7,485.4z M540.3,504.2c0-8.5,0-15.8,0-23c-0.6,0-1.1,0-1.7,0c0,3.8-0.5,7.8,0.1,11.5
			C539.3,496.1,535.6,500.2,540.3,504.2z M489.2,498.3c-0.4,0-0.7,0-1.1,0c0,4.8,0,9.6,0,14.8c-3.4,0-6.2,0-9.1,0c0,0.2,0,0.4,0,0.6
			c3.3,0,6.7,0,10.1,0C489.2,508.4,489.2,503.3,489.2,498.3z"/>
		<path d="M1115,313.1c-6.8-2-9.8,5.4-15.3,6.9c1.6,3.2,8,0.1,6.4,7.4c-4-2.1-7.6-4-11.6-6.1c0.4,0.9,0.7,1.7,0.7,1.7
			c-9.1-2.6-18.7-5.3-28.7-8.1c1.2,4.8,7.6,6.2,4.7,12.3c3.3,1,6.6,1.9,9.8,3.1c4.8,1.8,8.1,9,6.6,13.8c-0.8,2.6-0.2,4.7,1.7,5.8
			c1.3,0.7,2.8,1.2,4.3,1.8c-2,2-5.8,1-6.9-2.2c-1.4-3.9-4-4.6-7.3-4.3c-3.7,0.4-4.5,3.1-4.6,6.6c0,1.1-1.2,2.1-2.2,3.7
			c0.3,0.6,1.1,2,2.1,3.9c-1.8,0-3,0-4.2,0c0.3-1.5,0.5-2.8,0.9-4.8c-9,0-17.6,0.5-26-0.2c-4.1-0.4-8.4-2.4-11.7-5.1
			c-1.5-1.2-0.8-5.7-1.2-8.7c0.5-0.1,0.9-0.3,1.4-0.4c-1.3-0.9-2.6-1.8-3.7-2.5c-0.7,1.7-1.5,3.9-2.4,6.2c0.2,0.1,1.5,0.4,3.2,0.8
			c-4,1.6-4,1.6-7.1-2c-1.8-2.1-8.1-1-9.9,1.7c-0.9,1.4-1.8,2.7-2.8,4.1c-0.5-0.1-1-0.3-1.5-0.4c-0.3-3.9-0.6-7.8-1-11.5
			c-1.5,0.3-3.7,0.7-5.9,1.4c-0.8,0.3-1.8,1.1-2.1,2c-2,5.8-3.4,11.8-9,15.1c-0.6,0.4-0.9,1.9-1,2.9c-0.2,2.3-0.3,4.6-0.4,7
			c-6.8,0.4-12.2-6.1-12.8-14.4c-0.1-1.5-0.4-2.9-0.5-4.4c-0.2-2.3-1.2-5.8-0.2-6.8c1.6-1.7,4.6-1.7,7.9-2.8c0.3-3-2.7-4.5-5.5-6.3
			c-4.5-2.8-4.8-8.6-1.3-11.5c-0.8-6.7-1.6-12.8-2.1-19.1c-0.1-1.2,1-2.6,1.8-3.8c0.6-0.9,1.8-1.3,2.2-2.2c2.3-5.8,4-5.8,9.5-3.8
			c3.2,1.1,6.9,3.3,11.2-0.2c2.3-1.8,7.3-2.5,11,0.5c3,2.4,5.8,0.8,6.9-2.6c1.5-4.8,4.4-5.4,8.4-5.2c2,0.1,4.3-0.1,6-1.1
			c6.9-4.1,13.4-2.2,20.2,0.5c1.5,0.6,3.6-0.9,5.9-1.6c2.2,1.8,4.9,4,8.1,6.6c-1.6,3.5,0.6,5.1,3.8,5.7c2.5,0.5,5.3,1.5,7.7,1
			c4.9-1.1,7.8,2.5,11.5,4.6c4.3,2.5,9.1,4.3,13.8,5.8c3.7,1.2,7.6,1.6,11.4,2.3C1115,308.5,1115,310.8,1115,313.1z"/>
		<path d="M177.1,539.1c0-15.6,0-31.3,0-47.2c3.8-0.7,7.5-1.4,11-2c3.7-12.1,3.7-12.3,15.6-12c10.2,0.3,20.4,1.1,29.2,1.6
			c6.2-6.2,12-12,17.8-17.6c0.7-0.7,2.1-0.6,3.2-0.6c2.9-0.1,5.9,0.1,8.8-0.2c4.4-0.4,8.8-1.2,13.2-1.8c0.1,0.6,0.2,1.3,0.3,1.9
			c-1.6,0.3-3.2,0.6-4.8,0.9c-0.1,0.4-0.2,0.9-0.3,1.3c2.3,0.5,4.7,0.7,6.8,1.7c2.4,1.1,4.5,2.8,6.6,4.5c2.3,1.9,4.3,4,7.1,6.6
			c-5.5,0-10.2,0.2-14.9,0c-5.1-0.2-10.3-0.8-15.4-1c-0.3,0-0.6,1.6-0.9,2.5c0,0.8,0,1.6-0.1,2.4c-0.3,1.7-1,3.4-1,5.1
			c-0.1,7.9,0,15.9,0,23.8c0,3.9,0,7.7,0,11.6c1.1-9.5,1-18.9,1.1-28.3c0-1.5,0.8-3,1.6-5.9c1.6,6.3,2.7,10.6,4,15.4
			c-0.9-0.7-1.6-1.2-2.8-2.1c0.6,2.1,1.3,3.3,1.4,4.6c0.3,3.4,0.4,6.8,0.5,10.2c0.1,3.3,0.2,6.5,0.4,9.8c0.1,0.8,0.2,1.5,0.3,2.3
			c0,2.3,0,4.5-0.1,6.8c0,0.8,0,1.6,0,2.4c0,1.1-0.1,2.2-0.1,3.4C236.1,539.1,206.6,539.1,177.1,539.1z"/>
		<path d="M302,539.1c0-10,0-20,0-30.2c-1.7-0.5-3.3-1-4.9-1.5c0-2.1,0-4.3,0-6.4c4.1,0.2,7.8,0.5,11.5,0.5c2.5,0,4-1.2,3.9-4.6
			c-0.2-5.8-0.1-11.6-0.1-17.8c3.2-0.2,5.9-0.3,9-0.5c0-1.4,0-2.8,0-3.9c-3,0.2-5.9,0.4-9.7,0.6c3.1-4.4,8.5,0.5,10.4-5.8
			c-3.8,0.3-6.7,0.6-9.7,0.8c9-3.4,9-3.4,8.8-6.4c-2.8,0.4-5.6,0.8-8.4,1.3c0-33.8,0-67.2,0-101c1.5-0.2,3.2-0.3,4.8-0.5
			c0-0.2,0-0.4,0-0.6c-1.6-0.2-3.2-0.4-5.3-0.7c0-20.6-0.1-41,0.2-61.4c0-1.3,2.3-3.4,3.8-3.9c3.7-1.2,7.7-1.4,11.4-2.4
			c3.5-0.9,5.5-0.7,5.5,4.4c-0.2,35.4-0.1,70.8-0.1,106.1c0,14.1,0,28.1,0,42.5c-1.9,0.2-3.6,0.3-5.3,0.4c0,0.2,0,0.4,0,0.7
			c1.7,0.3,3.4,0.5,5.1,0.8c-0.3,2.7-0.5,5.2-0.9,8.4c-1.2,0.1-3.3,0.3-5.4,0.4c0,0.2,0,0.5-0.1,0.7c1.4,0.2,2.8,0.5,4.8,0.8
			c-1.9,0.3-3.2,0.5-4.5,0.6c0,0.2-0.1,0.5-0.1,0.7c2.1,0.3,4.2,0.6,6.3,0.9c-1.3,4-7.1-1.3-6.9,4.5c2.3-0.1,4.6-0.2,6.8-0.4
			c0,0.6,0,1.1,0,1.7c-1.5,0.3-3,0.5-6,1c2.5,0.6,3.6,0.8,4.9,1.1c-1,0.4-1.7,0.6-2.9,1.1c1.5,0.6,2.7,1.1,3.9,1.6
			c0,0.3-0.1,0.7-0.1,1c-1.4,0.1-2.9,0.1-4.3,0.4c-1,0.2-1.9,0.9-2.8,1.4c1,0.6,1.9,1.5,3,1.9c0.9,0.3,2,0.1,3.6,0.1
			c-2.7,1.4-4.9,2.5-7.1,3.6c0.2,0.6,0.3,1.1,0.5,1.7c2.1,0.2,4.2,0.5,7.4,0.8c-4.2,0.7-7.2,1.7-10.1,1.5c-2.4-0.2-3.5,0.3-3.3,2.7
			c0,0.4,2.5,0.5,3.8,0.7c0.6,0.1,1.3,0.2,1.7,0.2c-0.9,1.3-1.7,2.6-2.5,3.8c1.2-0.4,2.3-0.8,3.5-1.1c1.9-0.4,3.9-0.6,6.9-1.1
			c-0.3,4.6-0.9,8.7-0.9,12.8c0.1,9.9,0.5,19.7,0.7,29.6c0,2-0.6,4-1,6c-6.9,0-13.9,0-20.8,0c-0.3-0.8-1-1.7-0.9-2.5
			c0.4-9,1.1-18,1.4-27c0.1-2.3-0.6-4.6-1-6.9c-0.4,0-0.8,0.1-1.2,0.1c-0.4,1.4-0.7,2.8-1.1,4.3c-0.4-0.4-0.7-0.8-1.1-1.2
			c-1.2,1.2-2.3,2.5-3.7,4c2.2,0.6,3.9,1,7.2,1.9c-2.4,3-4,5-5.4,6.8c0.3,0.1,1.5,0.4,2.8,0.8c-0.8,3.6,2,8.3-4.4,9.1
			c2,0.8,3.2,1.2,4.2,1.6c0,2.5,0,4.8,0,5.7c-1.5,1.6-2.2,2.5-3,3.4C304.1,539.1,303,539.1,302,539.1z"/>
		<path d="M1081.8,476.9c1.1,0.5,2.2,0.9,3.3,1.4c-0.1-1.4-0.2-2.8-0.3-5c1.3,1.6,2.3,2.7,3.6,4.2c0.8-2.5,1.2-4.5,2-6.2
			c1.4-2.9,2.9-5,6.7-3.6c3.5,1.3,7.4,1,11.2,0.6c2.2,0.2,4.5,0.3,6.7,0.5c0,19.3,0,38.6,0,57.9c-0.7-1.1-1.3-3-2.2-3.2
			c-5.1-0.8-10.3-1.6-15.4-1.7c-3.2-0.1-6.5,0.9-8.9,1.3c0.1,3.5,0.3,7.4,0.5,12.7c-4.6-1.3-9.7-1.1-11.4-3.6
			c-2.6-3.7-5.2-3.9-8.2-3.2c-5.6,1.3-8.1-3.3-11.3-6.4c-0.7-0.7,0.2-3.1,0.4-5.6c-5.5-0.3-11.3-0.7-17.9-1.1c1.2-1.5,2.2-3.8,3.9-5
			c5-3.6,10.2-6.8,15.3-10.2c1.1,1.5,2,3.2,3.2,4.5c1.9,2,4.1,3.6,6.1,5.5c-5.1,3.9-10.1,3.4-12.9-1.4c-0.4,1.5-0.7,3.1-1.2,4.9
			c5.2,0,10.7,0.1,16.1-0.1c0.4,0,0.8-1.5,1.2-2.3c-1.2-2-2.7-3.8-3.7-5.9c-1.8-3.8-3.1-7.9-5-11.6c-0.6-1.1-2.2-1.5-3.8-2.5
			c0,3.1,0,4.7,0,6.3c-3.8-5.8-1.4-12.4-2-18.6c-0.2-1.7-0.8-3.4-1.3-5.1l0.1,0.2c7.4-1.4,14.8-3.3,22,1.1c0.2,4,0.5,8,0.7,12.1
			c1.1,0.3,2.5,0.6,4,1c-1-5.3,4.2-1.5,7.2-4.4c-3.8,0.3-6.3,0.5-8.4,0.7C1082.2,482.2,1082,479.5,1081.8,476.9z M1087.4,487.3
			c-0.9,0.6-2.5,1.2-2.5,1.9c-0.2,10.9-0.1,21.9-0.1,32.8c1.1-9.5,1-19.1,1.1-28.6c0-2.1,1-4.1,1.5-6.2c-0.2,1.3-0.4,2.5-0.4,2.9
			c2.8,2,5.1,3.6,7.4,5.2c-0.3,0.5-0.5,1-0.8,1.5c1.5,0,2.9,0,4.5,0c0-2.6,0-5,0-6.9C1094.3,489,1090.9,488.1,1087.4,487.3z"/>
		<path d="M111.5,539.1c0-0.8,0-1.5,0-2.3c0.3-3.7,0.2-6.8,2.6-10.6c2.7-4.2,2-11,2.5-16.7c0.2-2.4,0-4.9,0-7.5
			c1.6-0.3,2.9-0.5,4.2-0.7c0-0.2,0-0.4,0-0.6c-1.6,0-3.2,0-5.2,0c0,3.4,0,6.7,0,10.1c-0.3,0-0.6,0-0.9,0c0-2.2,0.4-4.5-0.1-6.5
			c-1.3-5.4,2.5-7.4,5.4-8.5c2.1-0.8,5.1,1.5,7.7,2.5c1.6,0.6,3,2,4.5,2c10.5,0.2,21.1,0.1,31.7,0.3c2.5,0,5.1,0.9,7.6,0.8
			c1.5-0.1,2.9-1.4,4.4-2.2c0,0.4,0,1.6,0,2.9c0.1,6.3-1.1,7.5-6.9,7.4c-8-0.1-15.9-0.1-23.9,0c-0.3,0-0.6,0.2-1.3,0.4
			c0.4,4.6,0.9,9.2,1.4,14.3c-3.1,0-6.2,0-8.2,0c-1,5.3-1.8,10.1-2.6,14.8C126.8,539.1,119.1,539.1,111.5,539.1z M136.8,509.9
			c-3.8-0.2-6.6-0.3-9.4-0.5c-0.3-4-0.5-7.1-0.7-10.2c-0.3,0.1-0.5,0.1-0.8,0.2c0,9,0,18,0,28.5c2.3-2.3,3.3-3.3,4.4-4.4
			c-0.5-0.2-1.1-0.3-1.6-0.5c0.2-2.2-0.2-4.9,0.8-6.4C131.2,514.2,133.9,512.5,136.8,509.9z"/>
		<path d="M282.2,539.1c0-16.6,0-33.1,0-49.7c0.3,0,0.6-0.1,0.9-0.1c0.4,6.8,0.8,13.6,1.1,20.4c0.8,0,1.6-0.1,2.3-0.1
			c0.4-7,0.7-14,1.1-21.1c0.4,0,0.9,0,1.3,0c0.4,1.3,0.7,2.7,1.1,4.1c1.3-2.6,2.4-4.8,3.5-7c4,3.1,2.2,7.7,2.5,11.7
			c0.2,2.9-0.6,6-0.2,8.8c0.2,1.6,2,3,3,4.5c-0.1,4.5-0.3,9-0.2,13.4c0.2,5,0.8,10.1,1.2,15.1C294,539.1,288.1,539.1,282.2,539.1z"
			/>
		<path d="M398.8,478.8c1.2,0.2,2.4,0.5,4.2,0.8c0,5.8,0,12,0,18.2c0,3.6,0.2,5.7,4.8,4.3c2.5-0.8,7.6-0.9,6.6,5.6
			c-0.1,0.8,1.2,1.8,1.2,1.8c-1.1,2.3-2.1,4.5-3.5,7.2c-0.1-8-4.9-3.5-8.3-3.1c1.7,0.8,3.5,1.7,5,2.4c-2,0.3-4.2,0.7-6.5,1.1
			c0,0.4,0,0.7,0,1.1c2.4,0.7,4.7,1.3,7.9,2.3c-2.9,0.5-5,0.8-7.2,1.2c0,0.3,0,0.6,0,1c2.5,0,5,0,8,0c0.2-0.9,0.5-2.4,0.8-3.8
			c0.4,0,0.8,0.1,1.3,0.1c0,2.3,0,4.7,0,6.8c-3.7,0-6.7,0-9.7,0c0,0.6,0,1.1-0.1,1.7c0.8,0.2,1.7,0.5,1.8,0.5
			c-0.6,2.4-1.2,4.7-1.9,7.4c0.8,0.3,1.8,0.6,2.8,0.9c-0.7,1-1.4,2-2,3c-2.1,0-4.2,0-6.2,0c0-3.4,0-6.8,0-10.6c1.4-0.5,2.7-1,4-1.4
			c0-2.1,0-3.9,0-5.8c-0.4-0.2-0.8-0.5-1.2-0.7c-0.8,1.4-1.7,2.8-2.7,4.7c0-11.9-0.1-23.6,0-35.4
			C397.9,486.2,398.5,482.5,398.8,478.8z"/>
		<path d="M1115,415.3c-7.7,1.5-13.9-1.5-20.1-6.5c-3.5-2.8-2.9-6.3-2.3-8.9c0.4-2,3.8-4.6,5.9-4.7c3.5-0.2,7,1.4,10.9,2.4
			c1.4-1,3.5-2.4,5.6-3.9C1115,400.9,1115,408.1,1115,415.3z"/>
		<path d="M49,520.9c1.5,0.4,2.9,1,4.4,1.1c1.2,0.1,2.4-0.4,3.3-1.1c3-0.5,5.9-1,10-1.6c0,7,0,13.4,0,19.9c-5.9,0-11.8,0-17.7,0
			C49,533,49,527,49,520.9z"/>
		<path d="M67.8,539.1c1.1-8.8,2.3-17.6,3.4-26.4c7.8,2.5,3.5,9,5.3,12.8c-1.5,1.1-3,2.3-4.5,3.4c2.3-0.5,4.7-1.1,7.3-1.7
			c0,3.7,0,7.8,0,11.8C75.4,539.1,71.6,539.1,67.8,539.1z"/>
		<path d="M96.9,539.1c0-7.5,0-15,0-22.8c-1.5,0-2.8,0.3-3.9-0.1c-0.8-0.3-1.2-1.7-1.8-2.5c0.8,0,1.7-0.1,2.5,0.1
			c1.8,0.4,3.3-0.7,5.4,1.3c4.3,4.3,5.4,8.5,1.8,14c1.1,1.5,2.2,3,2.6,3.5c-1.1,2.8-1.8,4.7-2.5,6.6
			C99.7,539.1,98.3,539.1,96.9,539.1z"/>
		<path d="M142.7,539.1c0.5-0.6,1-1.2,1.8-2.1c-1.6-0.2-3-0.3-4.4-0.4c0-0.2,0-0.3,0-0.5c1.6-0.1,3.2-0.2,5.1-0.3c0-3.4,0-6.7,0-9.9
			c0.2,0,0.5,0,0.7,0c0,1.3,0,2.5,0,4.1c5.4-0.4,10.6-0.7,17-1.1c-1.5,1.1-2.4,2.3-3.3,2.3c-3.3,0.2-6.6-0.1-9.8,0.1
			c-1.1,0.1-2.1,1-3.2,1.6c0.1,0.6,0.3,1.2,0.4,1.7c8.1,0,16.3,0,24.4,0c0,0.8,0,1.5,0,2.3c-7.1,0-14.2-0.1-21.3,0.1
			c-1.4,0-2.8,1.4-4.2,2.2C144.8,539.1,143.8,539.1,142.7,539.1z"/>
		<path d="M1010.9,539.1c1.8-7.1,1.8-7.1,12.4-6.6c0.4,2.2,0.8,4.4,1.2,6.6C1020,539.1,1015.5,539.1,1010.9,539.1z"/>
		<path d="M1045.3,539.1c-0.2-2.9-0.5-5.8-0.7-8.7c0.4-0.1,0.9-0.1,1.3-0.2c0.2,1.3,0.4,2.5,0.6,4.2c1.4-1.1,2.7-2.1,3.8-2.9
			c1.3,0.7,2.3,1.3,3.4,1.9c0.5,1.5,1,3,1.2,3.6c2.1,0.9,3.5,1.5,5,2.1C1055,539.1,1050.2,539.1,1045.3,539.1z"/>
		<path d="M1063.9,534.5c3.5-1.4,7.1,0.9,10.8-0.4c1.1-0.4,3.2,3.2,4.9,5c-5.2,0-10.4,0-15.6,0C1064,537.6,1064,536,1063.9,534.5z"
			/>
		<path d="M80.3,539.1c0-3-0.3-6.1,0.2-9.1c0.3-1.6,1.9-3,3.2-5.1c-2.2-0.6-4.3-1.2-6.3-1.8c0-0.2,0-0.3-0.1-0.5c2.2,0,4.3,0,7.1,0
			c0,5.3,0,10.8,0,16.4C83,539.1,81.7,539.1,80.3,539.1z"/>
		<path d="M299.9,539.1c-0.4-5-1-10.1-1.2-15.1c-0.2-4.5,0.1-8.9,0.2-13.4c0.7,0.9,1.9,1.7,1.9,2.6c0.2,8.6,0.1,17.3,0.1,25.9
			C300.6,539.1,300.3,539.1,299.9,539.1z"/>
		<path d="M557.9,424.6c-1.3-2.5-2.3-4.5-2.9-5.6c-2.3,0.8-4.3,1.5-6.3,2.2c-0.2-1.7-0.4-3.4-0.7-5.9c-1.5,1.1-3.1,2.3-4.8,3.4
			c-1.2,0.8-2.8,2-3.9,1.7c-1.1-0.3-2.5-2.1-2.6-3.4c-0.5-6.1-3.1-10.4-7.9-13.6c-2-1.3-3.9-3.4-4.9-5.7c-2.2-5.1-6.8-4.9-9.7-3.9
			c-7.1,2.4-6.8-2.7-8.3-8.8c2.4,1.6,3.9,2.2,4.9,3.3c2.8,3.2,5.7,3.5,9.2,1.5c1.7-1,4.1-0.8,5.8-1.8c2.7-1.5,6.1-3,7.5-5.7
			c2.5-4.5,5.1-5.4,9.3-3.7c2.4,0.9,5.2,0.5,7.5,1.6c6.6,3.1,13.6,5.7,19.2,10.3c3.7,3,5.7,8.9,7.7,13.8c0.4,1.1-2.4,3.8-4.1,6.2
			c0.7,0.3,2.3,0.9,4.2,1.6c-0.2,1.4-0.2,3.3-0.8,5c-1.3,3.4-3.2,6.4-7.3,4.3c-2.9-1.5-5.3-1.1-7.7,1.4
			C560.8,423.6,559.5,423.9,557.9,424.6z"/>
		<path d="M459.9,447.2c-1.2,0.9-2.3,2.1-3.6,2.6c-0.8,0.3-1.9-0.4-2.9-0.5s-2.1,0-3.1,0c-4.2,8.6-11.4,10.5-19.6,5.7
			c-4-2.3-8.4-3.8-12.7-5.3c-3.8-1.4-7.5-6.9-6.2-10.8c1.3-4.2,4.1-5.7,8.5-4.7c1.9,0.5,4.3-2.1,6.6-3.2c1.1-0.5,2.3-0.5,3.4-0.8
			c0.2,1.3,0,2.8,0.6,4c0.6,1.3,1.5,2.7,2.7,3.3c1.4,0.7,3.9,1.3,4.7,0.6c4.1-4.2,8.2-5.1,13.3-1.9c1.6,1,4,0.9,5.9,0.6
			c5.2-0.8,10.4-1.9,17.3-3.3c-0.4,4.1,0.2,8.1-1.3,9.9c-1.4,1.6-5.1,0.9-7.8,1.2c-0.7-1.5-1.2-4-2.1-4.2c-1.5-0.4-3.4,0.7-5.1,1.1
			C458.9,443.4,459.4,445.3,459.9,447.2z"/>
		<path d="M569.7,462.9c0.3-6.6,0.5-11.9,0.8-18.2c-3.5-0.6-8.2-1.1-12.8-2.2c-4.5-1-9-2.4-13.5-3.7c-1.2,1.7-2.4,3.3-3.5,4.9
			c1.3-9.6,4.1-10.6,11.8-8c5.3,1.8,11.1,1.2,16.7,2.1c2.5,0.4,5.1,1.4,7.1,3c4,3.2,7.8,2.4,9.1-3.9c4.5,3,8.6,5.7,12.3,8.2
			c1.6-1,3.2-2,6.1-3.8c-0.8,3.6-1.2,5.3-1.6,6.8c1.4,2.2,2.8,4.4,4.2,6.6c-0.4,0.4-0.8,0.7-1.2,1.1c-0.9-0.6-1.9-1.2-2.5-1.7
			c-3,3-6,5.9-9.8,9.7c-2.1-2-4.7-4.3-7-6.8c-3-3.3-9.1-4.8-13.6-2.6c2.3,1.3,4.3,2.1,5.9,3.4c1.1,0.9,1.6,2.6,2.4,3.9
			c-1.1,0.7-2.2,2-3.4,2C574.5,463.8,571.7,463.2,569.7,462.9z"/>
		<path d="M1048.5,426.7c-6.1-0.6-12.8-0.8-16.2-9.1c-0.9-2.1-3.7-3.3-6-5.2c0.7-1.8,1.7-4.3,2.8-7.1c-1.8-2.5-3.9-5.4-6.5-9
			c5.8-0.5,8.8,3.3,10.9,5.4c3.3-0.9,6-2.6,7.8-1.9c2.5,1.1,6.6,1.6,6.2,6.5c-0.1,1.1,0.7,2.3,1.2,3.4
			C1051.7,415,1054.4,420.3,1048.5,426.7z"/>
		<path d="M693.5,340.4c4.6-2.6,9.1-9,16.1-2.9c4.9,4.3,7.8,9.2,5.6,17.2c-6.3,3.1-13.2,8.7-21.6,4.6
			C693.5,353.2,693.5,347.2,693.5,340.4z"/>
		<path d="M742.6,409.6c-2.7-0.5-5.5-0.6-8-1.6c-3.3-1.2-5.7-0.4-8,2.2c-3.9,4.4-10.6,5-15,1.3c-0.8-0.6-0.5-3.3-0.1-4.9
			c0.5-1.9,1.7-3.6,2.3-5.5c1.2-3.9,7.2-4.9,11.8-2.6c4.1,2,8.7,2.7,12.9,4.5c1.9,0.8,3.4,2.9,5,4.4
			C743.1,408.2,742.9,408.9,742.6,409.6z"/>
		<path d="M599.5,389.8c4.8-3,9.6-3,14.5-1.1c4.8,1.9,4.2,4.6,3.3,10.6c-0.7,4.6-2.8,6.3-5.4,8.2c-0.8,0.6-3.3-0.1-3.9-1.1
			C605,401,602.4,395.4,599.5,389.8z"/>
		<path d="M933.3,410.1c1,0.4,2,0.9,3.4,1.5c0,18.6,0,37.7,0,56.9c-1-0.9-1.8-1.6-2.6-2.3c-0.4,0.4-0.8,0.7-1.3,1.1
			c0-8,0.1-16.1,0-24.1c-0.2-9.6-0.7-19.1-0.9-28.7C931.9,413.1,932.9,411.6,933.3,410.1L933.3,410.1z"/>
		<path d="M859.5,345.8c-1.5-4.8-4.9-3.5-7.8-3.7c-8.9-0.5-17.9-1.2-26.8-1.8c-1-0.1-2,0.3-3.5-0.7c1.1-0.5,2.2-1.5,3.3-1.5
			c9.1,0.3,18.2,0.7,27.3,1.1c10.9,0.5,21.9,1.1,32.8,1.8c1.3,0.1,2.5,0.9,3.8,1.4c-0.2,0.4-0.3,0.8-0.5,1.2c-4.9,0-9.7,0.1-14.6,0
			C868.7,343.7,863.8,340.8,859.5,345.8z"/>
		<path d="M893.4,368.8c-1.1,0.4-2.2,0.8-3.3,1.2c-0.7-1-2-2-1.9-3c0.3-6.4,0.9-12.9,1.4-19.3c2.2,2.2,4.3,4.9,7,6.5
			c2.4,1.4,5.4,1.6,8.1,2.3c-1.4,2.6-2.8,5.1-4.2,7.7C897.6,364.7,894.8,365.3,893.4,368.8z"/>
		<path d="M889.9,404.2c0,44.1,0,88.3,0,132.4c-0.3,0-0.5,0-0.8,0c0-44.1,0-88.3,0-132.4C889.3,404.2,889.6,404.2,889.9,404.2z"/>
		<path d="M485.7,418.4c1.1,1.3,3.9,3.2,4,5.2c0.1,2.2-2.1,4.7-3.8,6.7c-0.8,0.9-3.1,1.6-3.8,1.1c-3.9-3.3-7.6-7-11.3-10.8
			c-0.4-0.4-0.3-2.4,0.2-2.8c0.8-0.7,2.1-1,3.1-0.8c2,0.4,3.9,1.5,5.9,1.8C481.4,419.1,483,418.6,485.7,418.4z"/>
		<path d="M777.7,347c-8.2,8.4-16.8,4-25.3-1.8c1.8-5.6,11.3-6.9,17.3-2.5C772.1,344.6,775,345.6,777.7,347z"/>
		<path d="M982.8,423.7c-1.6-2.8-3.2-5.7-4.8-8.6c-0.5-0.9-0.7-2-1.3-2.9c-4.4-6.9-4.5-6.9,1.3-12.5
			C985.6,401.3,987,411.2,982.8,423.7z"/>
		<path d="M350.2,313.3c-0.3-2-0.4-3.1-0.7-5.9c-1.2,1.8-1.9,2.7-2.5,3.5c-0.4-0.6-1-1.7-2.5-3.9c14.6,1.7,28.3,3.2,42.1,4.8
			c-0.8,4.8-1.3,5.1-4.9,4.5c-5.2-0.8-10.4-1.2-15.5-2.2c-3.5-0.7-6.8-2.5-10.4-3C354.2,310.8,352.3,312.4,350.2,313.3z"/>
		<path d="M686.5,398.7c6.5,1,12.5,2,18.7,2.9c0.3,1.9,0.7,4.3,1.3,8c-2.1-0.3-4.1-0.7-6.3-0.9c-2.8-0.2-5.6-0.6-8.3-0.3
			C686.8,409,684.7,404.9,686.5,398.7z"/>
		<path d="M407.2,418.8c0-2.1,0-4.2,0-6.8c-0.9,0.7-1.5,1.3-2.6,2.2c-0.5-1.7-0.9-3.3-1.3-4.8c0.3-0.3,0.6-0.6,0.8-0.9
			c2.8,2.1,5.5,4.2,8.3,6.2c0.5-0.2,1-0.4,1.5-0.7c-0.6-3.4-1.3-6.8-1.9-10.3c3.1,0.6,5.5,1,9.1,1.7c-0.6,3.4-0.6,8-2.2,11.7
			c-2.3,5.4-7.6-1.5-10.7,2.6C407.8,419.4,407.5,419.1,407.2,418.8z"/>
		<path d="M293.8,485.8c-1.3-0.6-2.5-1.2-4.6-2.2c0.2-0.2-0.6,0.5-1.3,1.3c-0.3-0.8-0.5-1.6-0.9-3c-0.9,1.6-1.5,2.7-2.1,3.9
			c-0.3-1.2-0.6-2.4-0.7-3.1c-2.1,0.4-3.7,0.7-5.8,1.1c0.1,0.1-0.4-0.8-1.2-2.2c-0.4,1.6-0.6,2.5-1,4.5c-0.8-1.9-1.2-2.8-1.8-4.5
			c-0.8,1.3-1.2,2.2-1.7,3.1c-0.4-0.8-0.8-1.6-1.6-3c-0.8,1.7-1.4,2.8-2.2,4.6c-0.6-1.8-1-2.9-1.7-4.8c-0.7,1.8-1.1,2.8-1.9,4.7
			c-0.6-1.7-1-2.8-1.5-4.4c-0.7,1.5-1.2,2.7-1.7,3.8c-0.4,0-0.7,0-1.1,0.1c-0.1-1.9-0.2-3.7-0.3-5.6c0-0.8,0-1.6,0.1-2.4
			c8.6,0,17.2,0.1,25.9,0.1C293.4,477.8,293.4,477.8,293.8,485.8z M264.6,479.5c0,0.1,0,0.2,0,0.3c9.1,0.5,18.2,1,27.2,1.5
			c0-0.6,0-1.2,0.1-1.8C282.8,479.5,273.7,479.5,264.6,479.5z"/>
		<path d="M647.6,449.1c-2.7,0-5.5,0-8.2,0c-1.8,0-3.6,0.3-5.4,0c-1.6-0.2-3.5-0.6-4.5-1.8c-0.5-0.6,0.2-3.1,0.9-4.4
			c1-1.8,2.3-3.6,3.7-5c0.7-0.7,2.2-0.4,3.3-0.5c0.3,5.6,4.7,5.5,7.9,7.1c1,0.5,1.6,1.9,2.4,2.9C647.8,448,647.7,448.6,647.6,449.1z
			"/>
		<path d="M451,418.1c-2.2,1.4-5.1,3.3-7.2,4.6c-1.9-2.7-3.3-4.5-4.4-6.4c-1.2-2-3.6-4.6-3.2-6.2c0.9-3.4,3.7-3.5,6.7-1.9
			C446.6,410.2,450.3,411.9,451,418.1z"/>
		<path d="M288,404.6c5.6,1.4,10.1,2.6,13.5,3.5c-1.2,4.4-1.9,8-3.3,11.3c-0.6,1.4-2.6,2.2-4.7,3.9
			C291.5,416.6,289.9,411.2,288,404.6z"/>
		<path d="M939.3,460.7c0-20.9,0-41.9,0-62.8c0.2,0,0.5-0.1,0.7-0.1c0.8,20.9,1.5,41.8,2.3,62.7
			C941.3,460.5,940.3,460.6,939.3,460.7z"/>
		<path d="M599.8,411.1c1,0.4,1.7,0.5,2.2,0.9c1.9,1.5,3.7,3,5.6,4.6c-2,1.4-4,2.9-6.1,4.1c-1.3,0.7-2.8,1-4.3,1.5
			c-0.9-1-1.9-2.2-2.1-2.4c0.2-4.6,0.3-8.3,0.7-11.9c0.1-1,1.2-1.8,1.8-2.7c1,1.1,2.2,2.2,2.9,3.4
			C600.9,409,600.2,410.1,599.8,411.1z"/>
		<path d="M900.6,364.2c1.4-2.6,2.8-5.1,4.2-7.7c1.9,0,3.7,0,5.4,0c0.5,2.1,0.9,4.1,1.4,6.2c0.5,0,1,0,1.5,0
			c-2.1,3.5-4.1,7-6.2,10.5c-1.7-0.7-3.3-1.4-5-2.2C901.4,368.7,901,366.5,900.6,364.2z"/>
		<path d="M1074.4,405.7c-6.2,0-11.5,0.1-16.7-0.1c-0.7,0-1.9-2-1.7-2.8c0.3-1.5,1.1-3.4,2.2-4
			C1062.8,396.4,1070.6,399.4,1074.4,405.7z"/>
		<path d="M455.8,476.2c-0.9-3.6-1.8-7.3-2.7-10.9c0.4-0.6,0.8-1.1,1.2-1.7c2.8,1.2,6.8,1.5,8,3.6c2.9,5.4-4.4,5.2-4.9,9.2
			C456.8,476.4,456.3,476.3,455.8,476.2z"/>
		<path d="M837.7,244.8c-0.4,0.1-1.4,0.3-2.7,0.5c0,1.8,0,3.6,0,5.3c-0.4,0-0.8,0-1.2,0c-0.4-1.7-0.8-3.4-1.5-6.3
			c-0.5,2.8-0.7,4.3-1.1,6.5c-0.9-0.3-2.2-0.3-2.9-1.1c-0.6-0.7-1-2.6-0.6-3.1c1.6-1.9,3.6-3.4,6.5-6.2c-2.8,0.2-3.9,0.3-5,0.3
			c0-0.2-0.1-0.4-0.1-0.6c1.1-0.4,2.2-0.7,3.2-1c0.3-2.5,0.6-5.1,1-7.6c0.3,0,0.5,0,0.8,0C835.1,235.7,836.4,240,837.7,244.8z"/>
		<path d="M966.7,321.7c2.6,1.7,5.2,3.2,7.6,5.1c0.6,0.5,0.6,2.6,0.1,3.4c-0.6,1-2.4,2.1-3.1,1.7c-2.6-1.1-5-2.7-7.2-4.5
			c-0.7-0.6-1-2.8-0.6-3.9C963.7,322.8,965.3,322.5,966.7,321.7z"/>
		<path d="M418.6,477.9c-0.5,3.6-1.1,7.3-1.6,10.9c-0.2,0-0.4,0-0.6,0c-0.1-3.3-0.3-6.5-0.4-9.8c-0.4,0-0.8,0-1.3,0
			c-0.2,3-0.3,6-0.5,8.9c-0.2,0-0.5,0-0.7,0c0-2.9,0-5.8,0-8.8c-0.3,0-0.7,0-1-0.1c0,2.9,0,5.8,0,8.8c-0.3,0-0.7,0-1,0
			c0-3.1,0-6.1,0-10.4c-2.6,0-4.9,0-7.2,0l0.1-0.1c-1.7,0.9-4.9-3.6-5.5,1.7c-0.4-0.5-1.3-1.3-1.2-1.6c0.3-0.8,1.2-2.1,1.6-2
			c4,0.5,8.2-3.8,12.2,1.1c1.1,1.3,4.6,0.2,7,0.2C418.6,477,418.6,477.4,418.6,477.9z"/>
		<path d="M260.2,457.3c-1.1-7.5,0.3-14.9,1.5-22.2c0.5,0,0.9,0.1,1.4,0.1c-0.5,7.4-0.9,14.8-1.4,22.3
			C261.1,457.3,260.6,457.3,260.2,457.3z"/>
		<path d="M933.4,410.2c-0.7-3.9-1.5-7.8-2.3-12.2c2.1,0.2,3.4,0.3,4.9,0.4C935,402.4,938.3,407.3,933.4,410.2
			C933.3,410.1,933.4,410.2,933.4,410.2z"/>
		<path d="M306,426.7c-0.1-3.7-6-7.6,1.2-10.2C308.5,420,311.2,423.6,306,426.7z"/>
		<path d="M835.1,405.5c6,0.3,11.7,0.6,17.6,1C849.5,410.1,836.7,409.3,835.1,405.5z"/>
		<path d="M418.6,477.9c0-0.4,0-0.9,0-1.3c-2.1-0.6-4.3-1.2-6.2-1.7c3.5-2,7.4-0.9,9.5,3c-0.7,3.7-1.4,7.4-2.1,11.1
			c-0.4,0-0.8,0-1.1,0C418.6,485.2,418.6,481.6,418.6,477.9z"/>
		<path d="M424.9,477.7c0,3.7,0,7.4,0,11.1c-0.7,0.1-1.3,0.2-2,0.4c-2.6-3.2-0.4-7.8-1.2-11.5C422.7,477.7,423.8,477.7,424.9,477.7z
			"/>
		<path d="M92.2,520.2c-2,0.9-3.9,1.8-6.3,3c-0.2-1.4-0.3-2.7-0.5-4.3c3.1,0,6,0,9.4,0c0,1.3,0,2.7,0,4.1c-0.4,0.1-0.7,0.2-1.1,0.2
			C93.2,522.2,92.8,521.2,92.2,520.2z"/>
		<path d="M933.7,376.2c0.9,5.3,1.7,10.6,2.6,15.9c-0.8,0.1-1.5,0.2-2.3,0.3c-0.5-5.4-1-10.7-1.5-16.1
			C932.9,376.3,933.3,376.3,933.7,376.2z"/>
		<path d="M148.8,515.4c2,0,3.8,0,5.8,0c0,2.3,0,5.5,0,8.7c-0.3,0.1-0.6,0.1-0.9,0.2c-0.2-2-0.5-3.9-0.7-5.9
			c-0.4-0.2-0.8-0.5-1.2-0.7c-0.9,1.8-1.7,3.6-2.5,5.4C149,520.3,148.9,517.5,148.8,515.4z"/>
		<path d="M833,209.2c0.5,4.3,4.6,9,0.8,12.9c-0.6-0.1-1.2-0.1-1.8-0.2C832.3,217.6,832.7,213.4,833,209.2z"/>
		<path d="M853.9,406.8c3.5,0,6.9,0,10.4,0c0,0.7,0,1.4-0.1,2.1c-3.4-0.2-6.9-0.4-10.3-0.6C853.9,407.8,853.9,407.3,853.9,406.8z"/>
		<path d="M265.7,533.4c0,0.8,0,1.6,0,2.4C265.7,534.9,265.7,534.2,265.7,533.4z"/>
		<path d="M999.5,478.6c3.1,0.5,5.8,0.8,8.3,1.5c2.2,0.6,4.3,1.8,5.4,2.3c-0.1,2.8-0.2,4.4-0.2,6c0.5,0,1,0.1,1.5,0.1
			c-0.8,0.8-2.5,2-2.4,2.2c2.6,5.5-1.1,12,1.9,17.9c-0.3,0.2-1.9,0.9-1.9,1.4c0.1,1.2,1,2.4,1.8,3.9c-1.7,0.6-4.6,1.5-7.4,2.4
			c-0.8,0.2-1.6,0.3-2.3,0.7c-1,0.7-1.9,1.7-2.9,2.5c-0.6-1.4-1.7-2.8-1.7-4.2C999.4,503.1,999.5,490.8,999.5,478.6z"/>
		<path d="M997.1,467.4c0.7,1.2,1.3,2.5,1.2,2.3c5.8-0.4,10.9-0.8,16.4-1.2c0,2.8,0,5.2,0,8.1c-6.2,0-12.4,0-19,0c0-3.1,0-5.9,0-8.7
			C996.2,467.7,996.6,467.6,997.1,467.4z"/>
		<path d="M1064.1,534.6c-0.6-0.4-1.6-1.2-1.7-1.1c-3,3.3-5.9,0.7-8.8-0.1c-1.7-1.4,0.6-6.7-3.6-4.9c0.3-3.3,0.6-6.5,1-10.2
			c3.7,2.1-1.4,10,5.6,9c-0.4,0.9-1.2,2.5-1,2.6c0.9,0.8,2.1,1.4,3.2,1.7C1060.6,532.4,1063.8,530.1,1064.1,534.6z"/>
		<path d="M404.3,477.4c3.9,3.5,4.2,9.7,0.1,11.6c0-4,0-7.9,0-11.8C404.4,477.3,404.3,477.4,404.3,477.4z"/>
		<path d="M277.3,502.2c0,6.7,0,13.5,0,20.2c-0.3,0-0.6,0-0.9,0c0-6.7,0-13.5,0-20.2C276.7,502.3,277,502.2,277.3,502.2z"/>
		<path d="M280.5,494c0,5.7,0,11.3,0,17c-0.3,0-0.5,0.1-0.8,0.1c0-5.7,0-11.4,0-17.1C279.9,494,280.2,494,280.5,494z"/>
		<path d="M545.7,530.3c1.3-1.9,2.1-3.3,3-4.6c0.6,1.5,1.7,3,1.8,4.6c0.1,1.4-1,2.8-1.6,4.2C548,533.2,547.1,532,545.7,530.3z"/>
	</g>
</g>
</svg>
